<?xml version="1.0" encoding="UTF-8" standalone="no"?>
<!-- Created with Inkscape (http://www.inkscape.org/) -->

<svg
   xmlns:dc="http://purl.org/dc/elements/1.1/"
   xmlns:cc="http://creativecommons.org/ns#"
   xmlns:rdf="http://www.w3.org/1999/02/22-rdf-syntax-ns#"
   xmlns:svg="http://www.w3.org/2000/svg"
   xmlns="http://www.w3.org/2000/svg"
   xmlns:sodipodi="http://sodipodi.sourceforge.net/DTD/sodipodi-0.dtd"
   xmlns:inkscape="http://www.inkscape.org/namespaces/inkscape"
   id="svg2985"
   version="1.1"
   inkscape:version="0.48.2 r9819"
   width="450"
   height="315"
   xml:space="preserve"
   sodipodi:docname="stat.svg"><metadata
     id="metadata2991"><rdf:RDF><cc:Work
         rdf:about=""><dc:format>image/svg+xml</dc:format><dc:type
           rdf:resource="http://purl.org/dc/dcmitype/StillImage" /><dc:title></dc:title></cc:Work></rdf:RDF></metadata><defs
     id="defs2989" /><sodipodi:namedview
     pagecolor="#ffffff"
     bordercolor="#666666"
     borderopacity="1"
     objecttolerance="10"
     gridtolerance="10"
     guidetolerance="10"
     inkscape:pageopacity="0"
     inkscape:pageshadow="2"
     inkscape:window-width="1366"
     inkscape:window-height="749"
     id="namedview2987"
     showgrid="false"
     inkscape:zoom="2"
     inkscape:cx="222.54822"
     inkscape:cy="130.48067"
     inkscape:window-x="-4"
     inkscape:window-y="-4"
     inkscape:window-maximized="1"
     inkscape:current-layer="g2995" /><g
     id="g2993"
     inkscape:groupmode="layer"
     inkscape:label="ink_ext_XXXXXX"
     transform="matrix(1.25,0,0,-1.25,0,315)"><g
       id="g2995"
       transform="scale(0.1,0.1)"><path
         d="m 329,140 31.5,0 m 3120.5,0 -31.5,0"
         style="fill:none;stroke:#000000;stroke-opacity:1;stroke-width:7.5;stroke-linecap:butt;stroke-linejoin:miter;stroke-miterlimit:10;stroke-dasharray:none"
         id="path2997" /><g
         id="g2999"
         transform="scale(10,10)"><text
           transform="matrix(1,0,0,-1,24.8085,11.7)"
           id="text3001"><tspan
             style="fill:#000000;fill-opacity:1;fill-rule:nonzero;stroke:none;font-family:Helvetica;font-variant:normal;font-weight:normal;font-size:7;writing-mode:lr;-inkscape-font-specification:Helvetica"
             x="0"
             y="0"
             id="tspan3003">0</tspan></text>
</g><path
         d="m 329,240 15.5,0 m 3136.5,0 -15.5,0 M 329,339.5 l 15.5,0 m 3136.5,0 -15.5,0 m -3136.5,100 15.5,0 m 3136.5,0 -15.5,0 m -3136.5,100 15.5,0 m 3136.5,0 -15.5,0 M 329,639 l 15.5,0 m 3136.5,0 -15.5,0 m -3136.5,0 31.5,0 m 3120.5,0 -31.5,0"
         style="fill:none;stroke:#000000;stroke-opacity:1;stroke-width:7.5;stroke-linecap:butt;stroke-linejoin:miter;stroke-miterlimit:10;stroke-dasharray:none"
         id="path3005" /><g
         id="g3007"
         transform="scale(10,10)"><text
           transform="matrix(1,0,0,-1,15.0792,61.6)"
           id="text3009"><tspan
             style="fill:#000000;fill-opacity:1;fill-rule:nonzero;stroke:none;font-family:Helvetica;font-variant:normal;font-weight:normal;font-size:7;writing-mode:lr;-inkscape-font-specification:Helvetica"
             x="0 3.892 5.838 9.73"
             y="0"
             sodipodi:role="line"
             id="tspan3011">0.05</tspan></text>
</g><path
         d="m 329,739 15.5,0 m 3136.5,0 -15.5,0 M 329,839 l 15.5,0 m 3136.5,0 -15.5,0 M 329,938.5 l 15.5,0 m 3136.5,0 -15.5,0 m -3136.5,100 15.5,0 m 3136.5,0 -15.5,0 m -3136.5,100 15.5,0 m 3136.5,0 -15.5,0 m -3136.5,0 31.5,0 m 3120.5,0 -31.5,0"
         style="fill:none;stroke:#000000;stroke-opacity:1;stroke-width:7.5;stroke-linecap:butt;stroke-linejoin:miter;stroke-miterlimit:10;stroke-dasharray:none"
         id="path3013" /><g
         id="g3015"
         transform="scale(10,10)"><text
           transform="matrix(1,0,0,-1,18.971,111.55)"
           id="text3017"><tspan
             style="fill:#000000;fill-opacity:1;fill-rule:nonzero;stroke:none;font-family:Helvetica;font-variant:normal;font-weight:normal;font-size:7;writing-mode:lr;-inkscape-font-specification:Helvetica"
             x="0 3.892 5.838"
             y="0"
             sodipodi:role="line"
             id="tspan3019">0.1</tspan></text>
</g><path
         d="m 329,1238 15.5,0 m 3136.5,0 -15.5,0 M 329,1338 l 15.5,0 m 3136.5,0 -15.5,0 m -3136.5,99.5 15.5,0 m 3136.5,0 -15.5,0 m -3136.5,100 15.5,0 m 3136.5,0 -15.5,0 m -3136.5,100 15.5,0 m 3136.5,0 -15.5,0 m -3136.5,0 31.5,0 m 3120.5,0 -31.5,0"
         style="fill:none;stroke:#000000;stroke-opacity:1;stroke-width:7.5;stroke-linecap:butt;stroke-linejoin:miter;stroke-miterlimit:10;stroke-dasharray:none"
         id="path3021" /><g
         id="g3023"
         transform="scale(10,10)"><text
           transform="matrix(1,0,0,-1,15.0792,161.45)"
           id="text3025"><tspan
             style="fill:#000000;fill-opacity:1;fill-rule:nonzero;stroke:none;font-family:Helvetica;font-variant:normal;font-weight:normal;font-size:7;writing-mode:lr;-inkscape-font-specification:Helvetica"
             x="0 3.892 5.838 9.73"
             y="0"
             sodipodi:role="line"
             id="tspan3027">0.15</tspan></text>
</g><path
         d="m 329,1737 15.5,0 m 3136.5,0 -15.5,0 M 329,1837 l 15.5,0 m 3136.5,0 -15.5,0 M 329,1937 l 15.5,0 m 3136.5,0 -15.5,0 m -3136.5,99.5 15.5,0 m 3136.5,0 -15.5,0 m -3136.5,100 15.5,0 m 3136.5,0 -15.5,0 m -3136.5,0 31.5,0 m 3120.5,0 -31.5,0"
         style="fill:none;stroke:#000000;stroke-opacity:1;stroke-width:7.5;stroke-linecap:butt;stroke-linejoin:miter;stroke-miterlimit:10;stroke-dasharray:none"
         id="path3029" /><g
         id="g3031"
         transform="scale(10,10)"><text
           transform="matrix(1,0,0,-1,18.971,211.35)"
           id="text3033"><tspan
             style="fill:#000000;fill-opacity:1;fill-rule:nonzero;stroke:none;font-family:Helvetica;font-variant:normal;font-weight:normal;font-size:7;writing-mode:lr;-inkscape-font-specification:Helvetica"
             x="0 3.892 5.838"
             y="0"
             sodipodi:role="line"
             id="tspan3035">0.2</tspan></text>
</g><path
         d="m 329,2236.5 15.5,0 m 3136.5,0 -15.5,0 M 329,2336 l 15.5,0 m 3136.5,0 -15.5,0 M 329,2436 l 15.5,0 m 3136.5,0 -15.5,0 M 329,140 l 0,31.5 m 0,2264.5 0,-31.5"
         style="fill:none;stroke:#000000;stroke-opacity:1;stroke-width:7.5;stroke-linecap:butt;stroke-linejoin:miter;stroke-miterlimit:10;stroke-dasharray:none"
         id="path3037" /><g
         id="g3039"
         transform="scale(10,10)"><text
           transform="matrix(1,0,0,-1,31.9273,4.7)"
           id="text3041"><tspan
             style="fill:#000000;fill-opacity:1;fill-rule:nonzero;stroke:none;font-family:Helvetica;font-variant:normal;font-weight:normal;font-size:7;writing-mode:lr;-inkscape-font-specification:Helvetica"
             x="0"
             y="0"
             id="tspan3043">1</tspan></text>
</g><path
         d="m 495,140 0,31.5 m 0,2264.5 0,-31.5"
         style="fill:none;stroke:#000000;stroke-opacity:1;stroke-width:7.5;stroke-linecap:butt;stroke-linejoin:miter;stroke-miterlimit:10;stroke-dasharray:none"
         id="path3045" /><g
         id="g3047"
         transform="scale(10,10)"><text
           transform="matrix(1,0,0,-1,48.5273,4.7)"
           id="text3049"><tspan
             style="fill:#000000;fill-opacity:1;fill-rule:nonzero;stroke:none;font-family:Helvetica;font-variant:normal;font-weight:normal;font-size:7;writing-mode:lr;-inkscape-font-specification:Helvetica"
             x="0"
             y="0"
             id="tspan3051">2</tspan></text>
</g><path
         d="m 661,140 0,31.5 m 0,2264.5 0,-31.5"
         style="fill:none;stroke:#000000;stroke-opacity:1;stroke-width:7.5;stroke-linecap:butt;stroke-linejoin:miter;stroke-miterlimit:10;stroke-dasharray:none"
         id="path3053" /><g
         id="g3055"
         transform="scale(10,10)"><text
           transform="matrix(1,0,0,-1,65.1273,4.7)"
           id="text3057"><tspan
             style="fill:#000000;fill-opacity:1;fill-rule:nonzero;stroke:none;font-family:Helvetica;font-variant:normal;font-weight:normal;font-size:7;writing-mode:lr;-inkscape-font-specification:Helvetica"
             x="0"
             y="0"
             id="tspan3059">3</tspan></text>
</g><path
         d="m 826.5,140 0,31.5 m 0,2264.5 0,-31.5"
         style="fill:none;stroke:#000000;stroke-opacity:1;stroke-width:7.5;stroke-linecap:butt;stroke-linejoin:miter;stroke-miterlimit:10;stroke-dasharray:none"
         id="path3061" /><g
         id="g3063"
         transform="scale(10,10)"><text
           transform="matrix(1,0,0,-1,81.6773,4.7)"
           id="text3065"><tspan
             style="fill:#000000;fill-opacity:1;fill-rule:nonzero;stroke:none;font-family:Helvetica;font-variant:normal;font-weight:normal;font-size:7;writing-mode:lr;-inkscape-font-specification:Helvetica"
             x="0"
             y="0"
             id="tspan3067">4</tspan></text>
</g><path
         d="m 992.5,140 0,31.5 m 0,2264.5 0,-31.5"
         style="fill:none;stroke:#000000;stroke-opacity:1;stroke-width:7.5;stroke-linecap:butt;stroke-linejoin:miter;stroke-miterlimit:10;stroke-dasharray:none"
         id="path3069" /><g
         id="g3071"
         transform="scale(10,10)"><text
           transform="matrix(1,0,0,-1,98.2773,4.7)"
           id="text3073"><tspan
             style="fill:#000000;fill-opacity:1;fill-rule:nonzero;stroke:none;font-family:Helvetica;font-variant:normal;font-weight:normal;font-size:7;writing-mode:lr;-inkscape-font-specification:Helvetica"
             x="0"
             y="0"
             id="tspan3075">5</tspan></text>
</g><path
         d="m 1158.5,140 0,31.5 m 0,2264.5 0,-31.5"
         style="fill:none;stroke:#000000;stroke-opacity:1;stroke-width:7.5;stroke-linecap:butt;stroke-linejoin:miter;stroke-miterlimit:10;stroke-dasharray:none"
         id="path3077" /><g
         id="g3079"
         transform="scale(10,10)"><text
           transform="matrix(1,0,0,-1,114.877,4.7)"
           id="text3081"><tspan
             style="fill:#000000;fill-opacity:1;fill-rule:nonzero;stroke:none;font-family:Helvetica;font-variant:normal;font-weight:normal;font-size:7;writing-mode:lr;-inkscape-font-specification:Helvetica"
             x="0"
             y="0"
             id="tspan3083">6</tspan></text>
</g><path
         d="m 1324.5,140 0,31.5 m 0,2264.5 0,-31.5"
         style="fill:none;stroke:#000000;stroke-opacity:1;stroke-width:7.5;stroke-linecap:butt;stroke-linejoin:miter;stroke-miterlimit:10;stroke-dasharray:none"
         id="path3085" /><g
         id="g3087"
         transform="scale(10,10)"><text
           transform="matrix(1,0,0,-1,131.477,4.7)"
           id="text3089"><tspan
             style="fill:#000000;fill-opacity:1;fill-rule:nonzero;stroke:none;font-family:Helvetica;font-variant:normal;font-weight:normal;font-size:7;writing-mode:lr;-inkscape-font-specification:Helvetica"
             x="0"
             y="0"
             id="tspan3091">7</tspan></text>
</g><path
         d="m 1490.5,140 0,31.5 m 0,2264.5 0,-31.5"
         style="fill:none;stroke:#000000;stroke-opacity:1;stroke-width:7.5;stroke-linecap:butt;stroke-linejoin:miter;stroke-miterlimit:10;stroke-dasharray:none"
         id="path3093" /><g
         id="g3095"
         transform="scale(10,10)"><text
           transform="matrix(1,0,0,-1,148.077,4.7)"
           id="text3097"><tspan
             style="fill:#000000;fill-opacity:1;fill-rule:nonzero;stroke:none;font-family:Helvetica;font-variant:normal;font-weight:normal;font-size:7;writing-mode:lr;-inkscape-font-specification:Helvetica"
             x="0"
             y="0"
             id="tspan3099">8</tspan></text>
</g><path
         d="m 1656,140 0,31.5 m 0,2264.5 0,-31.5"
         style="fill:none;stroke:#000000;stroke-opacity:1;stroke-width:7.5;stroke-linecap:butt;stroke-linejoin:miter;stroke-miterlimit:10;stroke-dasharray:none"
         id="path3101" /><g
         id="g3103"
         transform="scale(10,10)"><text
           transform="matrix(1,0,0,-1,164.627,4.7)"
           id="text3105"><tspan
             style="fill:#000000;fill-opacity:1;fill-rule:nonzero;stroke:none;font-family:Helvetica;font-variant:normal;font-weight:normal;font-size:7;writing-mode:lr;-inkscape-font-specification:Helvetica"
             x="0"
             y="0"
             id="tspan3107">9</tspan></text>
</g><path
         d="m 1822,140 0,31.5 m 0,2264.5 0,-31.5"
         style="fill:none;stroke:#000000;stroke-opacity:1;stroke-width:7.5;stroke-linecap:butt;stroke-linejoin:miter;stroke-miterlimit:10;stroke-dasharray:none"
         id="path3109" /><g
         id="g3111"
         transform="scale(10,10)"><text
           transform="matrix(1,0,0,-1,179.282,4.7)"
           id="text3113"><tspan
             style="fill:#000000;fill-opacity:1;fill-rule:nonzero;stroke:none;font-family:Helvetica;font-variant:normal;font-weight:normal;font-size:7;writing-mode:lr;-inkscape-font-specification:Helvetica"
             x="0 3.892"
             y="0"
             sodipodi:role="line"
             id="tspan3115">10</tspan></text>
</g><path
         d="m 1988,140 0,31.5 m 0,2264.5 0,-31.5"
         style="fill:none;stroke:#000000;stroke-opacity:1;stroke-width:7.5;stroke-linecap:butt;stroke-linejoin:miter;stroke-miterlimit:10;stroke-dasharray:none"
         id="path3117" /><g
         id="g3119"
         transform="scale(10,10)"><text
           transform="matrix(1,0,0,-1,195.882,4.7)"
           id="text3121"><tspan
             style="fill:#000000;fill-opacity:1;fill-rule:nonzero;stroke:none;font-family:Helvetica;font-variant:normal;font-weight:normal;font-size:7;writing-mode:lr;-inkscape-font-specification:Helvetica"
             x="0 3.892"
             y="0"
             sodipodi:role="line"
             id="tspan3123">11</tspan></text>
</g><path
         d="m 2154,140 0,31.5 m 0,2264.5 0,-31.5"
         style="fill:none;stroke:#000000;stroke-opacity:1;stroke-width:7.5;stroke-linecap:butt;stroke-linejoin:miter;stroke-miterlimit:10;stroke-dasharray:none"
         id="path3125" /><g
         id="g3127"
         transform="scale(10,10)"><text
           transform="matrix(1,0,0,-1,212.482,4.7)"
           id="text3129"><tspan
             style="fill:#000000;fill-opacity:1;fill-rule:nonzero;stroke:none;font-family:Helvetica;font-variant:normal;font-weight:normal;font-size:7;writing-mode:lr;-inkscape-font-specification:Helvetica"
             x="0 3.892"
             y="0"
             sodipodi:role="line"
             id="tspan3131">12</tspan></text>
</g><path
         d="m 2319.5,140 0,31.5 m 0,2264.5 0,-31.5"
         style="fill:none;stroke:#000000;stroke-opacity:1;stroke-width:7.5;stroke-linecap:butt;stroke-linejoin:miter;stroke-miterlimit:10;stroke-dasharray:none"
         id="path3133" /><g
         id="g3135"
         transform="scale(10,10)"><text
           transform="matrix(1,0,0,-1,229.032,4.7)"
           id="text3137"><tspan
             style="fill:#000000;fill-opacity:1;fill-rule:nonzero;stroke:none;font-family:Helvetica;font-variant:normal;font-weight:normal;font-size:7;writing-mode:lr;-inkscape-font-specification:Helvetica"
             x="0 3.892"
             y="0"
             sodipodi:role="line"
             id="tspan3139">13</tspan></text>
</g><path
         d="m 2485.5,140 0,31.5 m 0,2264.5 0,-31.5"
         style="fill:none;stroke:#000000;stroke-opacity:1;stroke-width:7.5;stroke-linecap:butt;stroke-linejoin:miter;stroke-miterlimit:10;stroke-dasharray:none"
         id="path3141" /><g
         id="g3143"
         transform="scale(10,10)"><text
           transform="matrix(1,0,0,-1,245.632,4.7)"
           id="text3145"><tspan
             style="fill:#000000;fill-opacity:1;fill-rule:nonzero;stroke:none;font-family:Helvetica;font-variant:normal;font-weight:normal;font-size:7;writing-mode:lr;-inkscape-font-specification:Helvetica"
             x="0 3.892"
             y="0"
             sodipodi:role="line"
             id="tspan3147">14</tspan></text>
</g><path
         d="m 2651.5,140 0,31.5 m 0,2264.5 0,-31.5"
         style="fill:none;stroke:#000000;stroke-opacity:1;stroke-width:7.5;stroke-linecap:butt;stroke-linejoin:miter;stroke-miterlimit:10;stroke-dasharray:none"
         id="path3149" /><g
         id="g3151"
         transform="scale(10,10)"><text
           transform="matrix(1,0,0,-1,262.232,4.7)"
           id="text3153"><tspan
             style="fill:#000000;fill-opacity:1;fill-rule:nonzero;stroke:none;font-family:Helvetica;font-variant:normal;font-weight:normal;font-size:7;writing-mode:lr;-inkscape-font-specification:Helvetica"
             x="0 3.892"
             y="0"
             sodipodi:role="line"
             id="tspan3155">15</tspan></text>
</g><path
         d="m 2817.5,140 0,31.5 m 0,2264.5 0,-31.5"
         style="fill:none;stroke:#000000;stroke-opacity:1;stroke-width:7.5;stroke-linecap:butt;stroke-linejoin:miter;stroke-miterlimit:10;stroke-dasharray:none"
         id="path3157" /><g
         id="g3159"
         transform="scale(10,10)"><text
           transform="matrix(1,0,0,-1,278.832,4.7)"
           id="text3161"><tspan
             style="fill:#000000;fill-opacity:1;fill-rule:nonzero;stroke:none;font-family:Helvetica;font-variant:normal;font-weight:normal;font-size:7;writing-mode:lr;-inkscape-font-specification:Helvetica"
             x="0 3.892"
             y="0"
             sodipodi:role="line"
             id="tspan3163">16</tspan></text>
</g><path
         d="m 2983.5,140 0,31.5 m 0,2264.5 0,-31.5"
         style="fill:none;stroke:#000000;stroke-opacity:1;stroke-width:7.5;stroke-linecap:butt;stroke-linejoin:miter;stroke-miterlimit:10;stroke-dasharray:none"
         id="path3165" /><g
         id="g3167"
         transform="scale(10,10)"><text
           transform="matrix(1,0,0,-1,295.432,4.7)"
           id="text3169"><tspan
             style="fill:#000000;fill-opacity:1;fill-rule:nonzero;stroke:none;font-family:Helvetica;font-variant:normal;font-weight:normal;font-size:7;writing-mode:lr;-inkscape-font-specification:Helvetica"
             x="0 3.892"
             y="0"
             sodipodi:role="line"
             id="tspan3171">17</tspan></text>
</g><path
         d="m 3149,140 0,31.5 m 0,2264.5 0,-31.5"
         style="fill:none;stroke:#000000;stroke-opacity:1;stroke-width:7.5;stroke-linecap:butt;stroke-linejoin:miter;stroke-miterlimit:10;stroke-dasharray:none"
         id="path3173" /><g
         id="g3175"
         transform="scale(10,10)"><text
           transform="matrix(1,0,0,-1,311.982,4.7)"
           id="text3177"><tspan
             style="fill:#000000;fill-opacity:1;fill-rule:nonzero;stroke:none;font-family:Helvetica;font-variant:normal;font-weight:normal;font-size:7;writing-mode:lr;-inkscape-font-specification:Helvetica"
             x="0 3.892"
             y="0"
             sodipodi:role="line"
             id="tspan3179">18</tspan></text>
</g><path
         d="m 3315,140 0,31.5 m 0,2264.5 0,-31.5"
         style="fill:none;stroke:#000000;stroke-opacity:1;stroke-width:7.5;stroke-linecap:butt;stroke-linejoin:miter;stroke-miterlimit:10;stroke-dasharray:none"
         id="path3181" /><g
         id="g3183"
         transform="scale(10,10)"><text
           transform="matrix(1,0,0,-1,328.582,4.7)"
           id="text3185"><tspan
             style="fill:#000000;fill-opacity:1;fill-rule:nonzero;stroke:none;font-family:Helvetica;font-variant:normal;font-weight:normal;font-size:7;writing-mode:lr;-inkscape-font-specification:Helvetica"
             x="0 3.892"
             y="0"
             sodipodi:role="line"
             id="tspan3187">19</tspan></text>
</g><path
         d="m 3481,140 0,31.5 m 0,2264.5 0,-31.5"
         style="fill:none;stroke:#000000;stroke-opacity:1;stroke-width:7.5;stroke-linecap:butt;stroke-linejoin:miter;stroke-miterlimit:10;stroke-dasharray:none"
         id="path3189" /><g
         id="g3191"
         transform="scale(10,10)"><text
           transform="matrix(1,0,0,-1,345.182,4.7)"
           id="text3193"><tspan
             style="fill:#000000;fill-opacity:1;fill-rule:nonzero;stroke:none;font-family:Helvetica;font-variant:normal;font-weight:normal;font-size:7;writing-mode:lr;-inkscape-font-specification:Helvetica"
             x="0 3.892"
             y="0"
             sodipodi:role="line"
             id="tspan3195">20</tspan></text>
</g><path
         d="m 329,140 3152,0 0,2296 -3152,0 0,-2296 z"
         style="fill:none;stroke:#000000;stroke-opacity:1;stroke-width:7.5;stroke-linecap:butt;stroke-linejoin:miter;stroke-miterlimit:10;stroke-dasharray:none"
         id="path3197" /><path
         d="m 352.625,140 c 0,13.047 -10.578,23.625 -23.625,23.625 -13.047,0 -23.625,-10.578 -23.625,-23.625 0,-13.047 10.578,-23.625 23.625,-23.625 13.047,0 23.625,10.578 23.625,23.625"
         style="fill:#000000;stroke:#000000;stroke-opacity:1;stroke-width:3.75000000000000000;stroke-linecap:butt;stroke-linejoin:miter;stroke-miterlimit:10;stroke-dasharray:none;fill-opacity:1"
         id="path3199" /><path
         d="m 329,140 0,0"
         style="fill:none;stroke:#ff0000;stroke-opacity:1;stroke-width:3.75;stroke-linecap:round;stroke-linejoin:miter;stroke-miterlimit:10;stroke-dasharray:none"
         id="path3201" /><path
         d="m 518.625,145.5 c 0,13.047 -10.578,23.625 -23.625,23.625 -13.047,0 -23.625,-10.578 -23.625,-23.625 0,-13.047 10.578,-23.625 23.625,-23.625 13.047,0 23.625,10.578 23.625,23.625"
         style="fill:#000000;stroke:#000000;stroke-opacity:1;stroke-width:3.75000000000000000;stroke-linecap:butt;stroke-linejoin:miter;stroke-miterlimit:10;stroke-dasharray:none;fill-opacity:1"
         id="path3203" /><path
         d="m 495,145.5 0,0"
         style="fill:none;stroke:#ff0000;stroke-opacity:1;stroke-width:3.75;stroke-linecap:round;stroke-linejoin:miter;stroke-miterlimit:10;stroke-dasharray:none"
         id="path3205" /><path
         d="m 684.625,357.5 c 0,13.047 -10.578,23.625 -23.625,23.625 -13.047,0 -23.625,-10.578 -23.625,-23.625 0,-13.047 10.578,-23.625 23.625,-23.625 13.047,0 23.625,10.578 23.625,23.625"
         style="fill:#000000;stroke:#000000;stroke-opacity:1;stroke-width:3.75199999999999980;stroke-linecap:butt;stroke-linejoin:miter;stroke-miterlimit:10;stroke-dasharray:none;opacity:1;fill-opacity:1"
         id="path3207" /><path
         d="m 661,357.5 0,0"
         style="fill:none;stroke:#ff0000;stroke-opacity:1;stroke-width:3.75;stroke-linecap:round;stroke-linejoin:miter;stroke-miterlimit:10;stroke-dasharray:none"
         id="path3209" /><path
         d="m 850.125,1087.5 c 0,13.05 -10.578,23.63 -23.625,23.63 -13.047,0 -23.625,-10.58 -23.625,-23.63 0,-13.05 10.578,-23.62 23.625,-23.62 13.047,0 23.625,10.57 23.625,23.62"
         style="fill:#000000;stroke:#000000;stroke-opacity:1;stroke-width:3.75000000000000000;stroke-linecap:butt;stroke-linejoin:miter;stroke-miterlimit:10;stroke-dasharray:none;fill-opacity:1"
         id="path3211" /><path
         d="m 826.5,1087.5 0,0"
         style="fill:none;stroke:#ff0000;stroke-opacity:1;stroke-width:3.75;stroke-linecap:round;stroke-linejoin:miter;stroke-miterlimit:10;stroke-dasharray:none"
         id="path3213" /><path
         d="m 1016.13,1861.5 c 0,13.05 -10.58,23.63 -23.63,23.63 -13.047,0 -23.625,-10.58 -23.625,-23.63 0,-13.05 10.578,-23.62 23.625,-23.62 13.05,0 23.63,10.57 23.63,23.62"
         style="fill:#000000;stroke:#000000;stroke-opacity:1;stroke-width:3.75000000000000000;stroke-linecap:butt;stroke-linejoin:miter;stroke-miterlimit:10;stroke-dasharray:none;fill-opacity:1"
         id="path3215" /><path
         d="m 992.5,1861.5 0,0"
         style="fill:none;stroke:#ff0000;stroke-opacity:1;stroke-width:3.75;stroke-linecap:round;stroke-linejoin:miter;stroke-miterlimit:10;stroke-dasharray:none"
         id="path3217" /><path
         d="m 1182.13,2092.5 c 0,13.05 -10.58,23.63 -23.63,23.63 -13.05,0 -23.62,-10.58 -23.62,-23.63 0,-13.05 10.57,-23.62 23.62,-23.62 13.05,0 23.63,10.57 23.63,23.62"
         style="fill:#000000;stroke:#000000;stroke-opacity:1;stroke-width:3.75000000000000000;stroke-linecap:butt;stroke-linejoin:miter;stroke-miterlimit:10;stroke-dasharray:none;fill-opacity:1"
         id="path3219" /><path
         d="m 1158.5,2092.5 0,0"
         style="fill:none;stroke:#ff0000;stroke-opacity:1;stroke-width:3.75;stroke-linecap:round;stroke-linejoin:miter;stroke-miterlimit:10;stroke-dasharray:none"
         id="path3221" /><path
         d="m 1348.13,1848 c 0,13.05 -10.58,23.63 -23.63,23.63 -13.05,0 -23.62,-10.58 -23.62,-23.63 0,-13.05 10.57,-23.62 23.62,-23.62 13.05,0 23.63,10.57 23.63,23.62"
         style="fill:#000000;stroke:#000000;stroke-opacity:1;stroke-width:3.75000000000000000;stroke-linecap:butt;stroke-linejoin:miter;stroke-miterlimit:10;stroke-dasharray:none;fill-opacity:1"
         id="path3223" /><path
         d="m 1324.5,1848 0,0"
         style="fill:none;stroke:#ff0000;stroke-opacity:1;stroke-width:3.75;stroke-linecap:round;stroke-linejoin:miter;stroke-miterlimit:10;stroke-dasharray:none"
         id="path3225" /><path
         d="m 1514.13,1407.5 c 0,13.05 -10.58,23.63 -23.63,23.63 -13.05,0 -23.62,-10.58 -23.62,-23.63 0,-13.05 10.57,-23.62 23.62,-23.62 13.05,0 23.63,10.57 23.63,23.62"
         style="fill:#000000;stroke:#000000;stroke-opacity:1;stroke-width:3.75000000000000000;stroke-linecap:butt;stroke-linejoin:miter;stroke-miterlimit:10;stroke-dasharray:none;fill-opacity:1"
         id="path3227" /><path
         d="m 1490.5,1407.5 0,0"
         style="fill:none;stroke:#ff0000;stroke-opacity:1;stroke-width:3.75;stroke-linecap:round;stroke-linejoin:miter;stroke-miterlimit:10;stroke-dasharray:none"
         id="path3229" /><path
         d="m 1679.63,999 c 0,13.05 -10.58,23.63 -23.63,23.63 -13.05,0 -23.62,-10.58 -23.62,-23.63 0,-13.047 10.57,-23.625 23.62,-23.625 13.05,0 23.63,10.578 23.63,23.625"
         style="fill:#000000;stroke:#000000;stroke-opacity:1;stroke-width:3.75000000000000000;stroke-linecap:butt;stroke-linejoin:miter;stroke-miterlimit:10;stroke-dasharray:none;fill-opacity:1"
         id="path3231" /><path
         d="m 1656,999 0,0"
         style="fill:none;stroke:#ff0000;stroke-opacity:1;stroke-width:3.75;stroke-linecap:round;stroke-linejoin:miter;stroke-miterlimit:10;stroke-dasharray:none"
         id="path3233" /><path
         d="m 1845.63,680.5 c 0,13.047 -10.58,23.625 -23.63,23.625 -13.05,0 -23.62,-10.578 -23.62,-23.625 0,-13.047 10.57,-23.625 23.62,-23.625 13.05,0 23.63,10.578 23.63,23.625"
         style="fill:#000000;stroke:#000000;stroke-opacity:1;stroke-width:3.75000000000000000;stroke-linecap:butt;stroke-linejoin:miter;stroke-miterlimit:10;stroke-dasharray:none;fill-opacity:1"
         id="path3235" /><path
         d="m 1822,680.5 0,0"
         style="fill:none;stroke:#ff0000;stroke-opacity:1;stroke-width:3.75;stroke-linecap:round;stroke-linejoin:miter;stroke-miterlimit:10;stroke-dasharray:none"
         id="path3237" /><path
         d="m 2011.63,462.5 c 0,13.047 -10.58,23.625 -23.63,23.625 -13.05,0 -23.62,-10.578 -23.62,-23.625 0,-13.047 10.57,-23.625 23.62,-23.625 13.05,0 23.63,10.578 23.63,23.625"
         style="fill:#000000;stroke:#000000;stroke-opacity:1;stroke-width:3.75000000000000000;stroke-linecap:butt;stroke-linejoin:miter;stroke-miterlimit:10;stroke-dasharray:none;fill-opacity:1"
         id="path3239" /><path
         d="m 1988,462.5 0,0"
         style="fill:none;stroke:#ff0000;stroke-opacity:1;stroke-width:3.75;stroke-linecap:round;stroke-linejoin:miter;stroke-miterlimit:10;stroke-dasharray:none"
         id="path3241" /><path
         d="m 2177.63,324.5 c 0,13.047 -10.58,23.625 -23.63,23.625 -13.05,0 -23.62,-10.578 -23.62,-23.625 0,-13.047 10.57,-23.625 23.62,-23.625 13.05,0 23.63,10.578 23.63,23.625"
         style="fill:#000000;stroke:#000000;stroke-opacity:1;stroke-width:3.75000000000000000;stroke-linecap:butt;stroke-linejoin:miter;stroke-miterlimit:10;stroke-dasharray:none;fill-opacity:1"
         id="path3243" /><path
         d="m 2154,324.5 0,0"
         style="fill:none;stroke:#ff0000;stroke-opacity:1;stroke-width:3.75;stroke-linecap:round;stroke-linejoin:miter;stroke-miterlimit:10;stroke-dasharray:none"
         id="path3245" /><path
         d="m 2343.13,245.5 c 0,13.047 -10.58,23.625 -23.63,23.625 -13.05,0 -23.62,-10.578 -23.62,-23.625 0,-13.047 10.57,-23.625 23.62,-23.625 13.05,0 23.63,10.578 23.63,23.625"
         style="fill:#000000;stroke:#000000;stroke-opacity:1;stroke-width:3.75000000000000000;stroke-linecap:butt;stroke-linejoin:miter;stroke-miterlimit:10;stroke-dasharray:none;fill-opacity:1"
         id="path3247" /><path
         d="m 2319.5,245.5 0,0"
         style="fill:none;stroke:#ff0000;stroke-opacity:1;stroke-width:3.75;stroke-linecap:round;stroke-linejoin:miter;stroke-miterlimit:10;stroke-dasharray:none"
         id="path3249" /><path
         d="m 2509.13,200.5 c 0,13.047 -10.58,23.625 -23.63,23.625 -13.05,0 -23.62,-10.578 -23.62,-23.625 0,-13.047 10.57,-23.625 23.62,-23.625 13.05,0 23.63,10.578 23.63,23.625"
         style="fill:#000000;stroke:#000000;stroke-opacity:1;stroke-width:3.75000000000000000;stroke-linecap:butt;stroke-linejoin:miter;stroke-miterlimit:10;stroke-dasharray:none;fill-opacity:1"
         id="path3251" /><path
         d="m 2485.5,200.5 0,0"
         style="fill:none;stroke:#ff0000;stroke-opacity:1;stroke-width:3.75;stroke-linecap:round;stroke-linejoin:miter;stroke-miterlimit:10;stroke-dasharray:none"
         id="path3253" /><path
         d="m 2675.13,175 c 0,13.047 -10.58,23.625 -23.63,23.625 -13.05,0 -23.62,-10.578 -23.62,-23.625 0,-13.047 10.57,-23.625 23.62,-23.625 13.05,0 23.63,10.578 23.63,23.625"
         style="fill:#000000;stroke:#000000;stroke-opacity:1;stroke-width:3.75000000000000000;stroke-linecap:butt;stroke-linejoin:miter;stroke-miterlimit:10;stroke-dasharray:none;fill-opacity:1"
         id="path3255" /><path
         d="m 2651.5,175 0,0"
         style="fill:none;stroke:#ff0000;stroke-opacity:1;stroke-width:3.75;stroke-linecap:round;stroke-linejoin:miter;stroke-miterlimit:10;stroke-dasharray:none"
         id="path3257" /><path
         d="m 2841.13,160.5 c 0,13.047 -10.58,23.625 -23.63,23.625 -13.05,0 -23.62,-10.578 -23.62,-23.625 0,-13.047 10.57,-23.625 23.62,-23.625 13.05,0 23.63,10.578 23.63,23.625"
         style="fill:#000000;stroke:#000000;stroke-opacity:1;stroke-width:3.75000000000000000;stroke-linecap:butt;stroke-linejoin:miter;stroke-miterlimit:10;stroke-dasharray:none;fill-opacity:1"
         id="path3259" /><path
         d="m 2817.5,160.5 0,0"
         style="fill:none;stroke:#ff0000;stroke-opacity:1;stroke-width:3.75;stroke-linecap:round;stroke-linejoin:miter;stroke-miterlimit:10;stroke-dasharray:none"
         id="path3261" /><path
         d="m 3007.13,152.5 c 0,13.047 -10.58,23.625 -23.63,23.625 -13.05,0 -23.62,-10.578 -23.62,-23.625 0,-13.047 10.57,-23.625 23.62,-23.625 13.05,0 23.63,10.578 23.63,23.625"
         style="fill:#000000;stroke:#000000;stroke-opacity:1;stroke-width:3.75000000000000000;stroke-linecap:butt;stroke-linejoin:miter;stroke-miterlimit:10;stroke-dasharray:none;fill-opacity:1"
         id="path3263" /><path
         d="m 2983.5,152.5 0,0"
         style="fill:none;stroke:#ff0000;stroke-opacity:1;stroke-width:3.75;stroke-linecap:round;stroke-linejoin:miter;stroke-miterlimit:10;stroke-dasharray:none"
         id="path3265" /><path
         d="m 3172.63,147.5 c 0,13.047 -10.58,23.625 -23.63,23.625 -13.05,0 -23.62,-10.578 -23.62,-23.625 0,-13.047 10.57,-23.625 23.62,-23.625 13.05,0 23.63,10.578 23.63,23.625"
         style="fill:#000000;stroke:#000000;stroke-opacity:1;stroke-width:3.75000000000000000;stroke-linecap:butt;stroke-linejoin:miter;stroke-miterlimit:10;stroke-dasharray:none;fill-opacity:1"
         id="path3267" /><path
         d="m 3149,147.5 0,0"
         style="fill:none;stroke:#ff0000;stroke-opacity:1;stroke-width:3.75;stroke-linecap:round;stroke-linejoin:miter;stroke-miterlimit:10;stroke-dasharray:none"
         id="path3269" /><path
         d="m 3338.63,145 c 0,13.047 -10.58,23.625 -23.63,23.625 -13.05,0 -23.62,-10.578 -23.62,-23.625 0,-13.047 10.57,-23.625 23.62,-23.625 13.05,0 23.63,10.578 23.63,23.625"
         style="fill:#000000;stroke:#000000;stroke-opacity:1;stroke-width:3.75000000000000000;stroke-linecap:butt;stroke-linejoin:miter;stroke-miterlimit:10;stroke-dasharray:none;fill-opacity:1"
         id="path3271" /><path
         d="m 3315,145 0,0"
         style="fill:none;stroke:#ff0000;stroke-opacity:1;stroke-width:3.75;stroke-linecap:round;stroke-linejoin:miter;stroke-miterlimit:10;stroke-dasharray:none"
         id="path3273" /><path
         d="m 3504.63,143 c 0,13.047 -10.58,23.625 -23.63,23.625 -13.05,0 -23.62,-10.578 -23.62,-23.625 0,-13.047 10.57,-23.625 23.62,-23.625 13.05,0 23.63,10.578 23.63,23.625"
         style="fill:#000000;stroke:#000000;stroke-opacity:1;stroke-width:3.75000000000000000;stroke-linecap:butt;stroke-linejoin:miter;stroke-miterlimit:10;stroke-dasharray:none;fill-opacity:1"
         id="path3275" /><path
         d="m 3481,143 0,0"
         style="fill:none;stroke:#ff0000;stroke-opacity:1;stroke-width:3.75;stroke-linecap:round;stroke-linejoin:miter;stroke-miterlimit:10;stroke-dasharray:none"
         id="path3277" /><path
         d="m 469,140 19,3.5 32,11 32,19 31.5,31 32,48 32,68.5 31.5,93.5 32,117.5 32,137 31.5,152 32,161.5 32,167 32,167 31.5,161.5 32,151.5 32,135 31.5,113.5 32,88.5 32,64 31.5,41.5 32,20 32,1 31.5,-17.5 32,-33.5 32,-47 31.5,-59 32,-68.5 32,-76 31.5,-82 32,-86 32,-87.5 31.5,-87.5 32,-86 32,-83.5 31.5,-80 32,-77.5 32,-74 31.5,-71 32,-67.5 32,-64 31.5,-60 32,-57 32,-52.5 31.5,-49 32,-45 32,-42 32,-38 31.5,-35.5 32,-32 32,-29.5 31.5,-27 32,-24.5 32,-22 31.5,-19.5 32,-17.5 32,-15.5 31.5,-14 32,-12.5 32,-11.5 31.5,-10 32,-9.5 32,-8 31.5,-7.5 32,-6.5 32,-6 31.5,-5.5 32,-4.5 32,-4.5 31.5,-4 32,-3 32,-3 31.5,-3 32,-2.5 32,-2 31.5,-2 32,-1.5 32,-2 31.5,-1.5 32,-1 32,-1 32,-1.5 31.5,-1 32,-0.5 32,-1 31.5,-0.5 32,-1 32,-0.5 31.5,-0.5 32,-0.5 32,-0.5 31.5,0 32,-0.5 32,-0.5 31.5,0 32,-0.5"
         style="fill:none;stroke:#000000;stroke-opacity:1;stroke-width:8;stroke-linecap:butt;stroke-linejoin:miter;stroke-miterlimit:10;stroke-dasharray:none"
         id="path3279" /><path
         d="m 329,140 3152,0 0,2296 -3152,0 0,-2296 z"
         style="fill:none;stroke:#000000;stroke-opacity:1;stroke-width:7.5;stroke-linecap:butt;stroke-linejoin:miter;stroke-miterlimit:10;stroke-dasharray:none"
         id="path3281" /></g></g></svg>